<?xml version="1.0" encoding="utf-8"?>
<!-- Generator: Adobe Illustrator 24.1.3, SVG Export Plug-In . SVG Version: 6.00 Build 0)  -->
<svg version="1.1" xmlns="http://www.w3.org/2000/svg" xmlns:xlink="http://www.w3.org/1999/xlink" x="0px" y="0px"
	 viewBox="0 0 1000 1000" style="enable-background:new 0 0 1000 1000;" xml:space="preserve">
<style type="text/css">
	.st0{fill:#0F1113;}
	.st1{clip-path:url(#SVGID_2_);}
	.st2{fill:none;stroke:#FFFFFF;stroke-width:35;stroke-miterlimit:10;}
	.st3{fill:#FFFFFF;}
	.st4{font-family:'OCRAExtended';}
	.st5{font-size:160px;}
	.st6{font-family:'MyriadPro-Regular';}
	.st7{font-size:120px;}
	.st8{fill:#19ACE1;}
	.st9{fill:#111110;}
</style>
<g id="Fondo">
	<rect x="-4.46" class="st0" width="1004.46" height="1004.46"/>
</g>
<g id="Anillo">
	<g>
		<defs>
			<rect id="SVGID_1_" x="299.49" y="86.45" width="401.03" height="317.62"/>
		</defs>
		<clipPath id="SVGID_2_">
			<use xlink:href="#SVGID_1_"  style="overflow:visible;"/>
		</clipPath>
		<g class="st1">
			<path class="st2" d="M532.69,724.97h-61.27c-85.47,0-154.75-86.58-154.75-193.39V331.32c0.83-21.4,5.61-85.29,45.33-136.75
				c16.89-21.88,33.53-33.01,44.64-40.27c39.16-25.62,75.69-28.68,91.95-28.97c13.22-0.24,48.87,0.73,88.95,23.53
				c13.52,7.69,34.18,19.71,54.6,45.71c26.03,33.15,35.67,68.38,38.37,79.24c4.52,18.17,6.96,37.48,6.96,57.51v200.26
				C687.45,638.39,618.16,724.97,532.69,724.97z"/>
		</g>
	</g>
	<text transform="matrix(1 0 0 1 255.9983 869.0608)"><tspan x="0" y="0" class="st3 st4 st5">Lokee</tspan><tspan x="488" y="0" class="st3 st6 st7">®</tspan></text>
</g>
<g id="Casa">
	<g>
		<path class="st8" d="M645.38,751.73H354.62c-29.31,0-53.08-23.76-53.08-53.08V481.73c0-29.31,23.76-53.08,53.08-53.08h290.77
			c29.31,0,53.08,23.76,53.08,53.08v216.92C698.46,727.97,674.7,751.73,645.38,751.73z"/>
		<g>
			<path class="st8" d="M485.56,253.08L234.87,448.94c-9.87,7.71-11.62,21.96-3.91,31.83l14.71,18.82
				c7.71,9.87,21.96,11.62,31.83,3.91l250.69-195.86c9.87-7.71,11.62-21.96,3.91-31.83l-14.71-18.82
				C509.68,247.12,495.43,245.37,485.56,253.08z"/>
			<path class="st8" d="M514.44,253.08l250.69,195.86c9.87,7.71,11.62,21.96,3.91,31.83l-14.71,18.82
				c-7.71,9.87-21.96,11.62-31.83,3.91L471.82,307.63c-9.87-7.71-11.62-21.96-3.91-31.83l14.71-18.82
				C490.32,247.12,504.57,245.37,514.44,253.08z"/>
		</g>
		<polygon class="st8" points="339.5,453.16 531.17,303.41 641.27,444.33 		"/>
	</g>
</g>
<g id="Capa_5">
	<g>
		<circle class="st9" cx="500" cy="526.94" r="73.78"/>
		<path class="st9" d="M500,667.88L500,667.88c-22.48,0-40.7-18.22-40.7-40.7v-59.53c0-22.48,18.22-40.7,40.7-40.7h0
			c22.48,0,40.7,18.22,40.7,40.7v59.53C540.7,649.65,522.48,667.88,500,667.88z"/>
	</g>
</g>
</svg>
